REM DIRINDEX 1\2,1\3\5,1\3\6,1\4\7,1\4\8
REM DIRNAME cjc139,folder01,folder02,folder03,folder04,folder05,folder06,folder07
TITLE ""
FILE "EG_E1.5_09.mp3" MP3
  TRACK 01 AUDIO
    TITLE "0:"
    INDEX 01 00:00:00
  TRACK 02 AUDIO
    TITLE "2:cjc139_0283"
    INDEX 01 00:00:17
  TRACK 03 AUDIO
    TITLE "0:"
    INDEX 01 00:03:02
  TRACK 04 AUDIO
    TITLE "2:cjc139_0284"
    INDEX 01 00:04:25
  TRACK 05 AUDIO
    TITLE "0:"
    INDEX 01 00:07:58
  TRACK 06 AUDIO
    TITLE "2:cjc139_0285"
    INDEX 01 00:09:04
  TRACK 07 AUDIO
    TITLE "0:"
    INDEX 01 00:11:35
  TRACK 08 AUDIO
    TITLE "2:cjc139_0286"
    INDEX 01 00:12:60
  TRACK 09 AUDIO
    TITLE "0:"
    INDEX 01 00:15:52
  TRACK 10 AUDIO
    TITLE "2:cjc139_0287"
    INDEX 01 00:17:00
  TRACK 11 AUDIO
    TITLE "0:"
    INDEX 01 00:18:62
  TRACK 12 AUDIO
    TITLE "2:cjc139_0288"
    INDEX 01 00:20:06
  TRACK 13 AUDIO
    TITLE "0:"
    INDEX 01 00:22:56
  TRACK 14 AUDIO
    TITLE "2:cjc139_0289"
    INDEX 01 00:24:02
  TRACK 15 AUDIO
    TITLE "0:"
    INDEX 01 00:26:11
  TRACK 16 AUDIO
    TITLE "2:cjc139_0290"
    INDEX 01 00:27:36
  TRACK 17 AUDIO
    TITLE "0:"
    INDEX 01 00:29:34
  TRACK 18 AUDIO
    TITLE "2:cjc139_0291"
    INDEX 01 00:30:55
  TRACK 19 AUDIO
    TITLE "0:"
    INDEX 01 00:33:01
  TRACK 20 AUDIO
    TITLE "2:cjc139_0292"
    INDEX 01 00:34:26
  TRACK 21 AUDIO
    TITLE "0:"
    INDEX 01 00:37:20
  TRACK 22 AUDIO
    TITLE "2:cjc139_0293"
    INDEX 01 00:38:43
  TRACK 23 AUDIO
    TITLE "0:"
    INDEX 01 00:40:68
  TRACK 24 AUDIO
    TITLE "2:cjc139_0294"
    INDEX 01 00:42:18
  TRACK 25 AUDIO
    TITLE "0:"
    INDEX 01 00:44:34
  TRACK 26 AUDIO
    TITLE "2:cjc139_0295"
    INDEX 01 00:45:55
  TRACK 27 AUDIO
    TITLE "0:"
    INDEX 01 00:48:14
  TRACK 28 AUDIO
    TITLE "2:cjc139_0296"
    INDEX 01 00:49:35
  TRACK 29 AUDIO
    TITLE "0:"
    INDEX 01 00:51:22
  TRACK 30 AUDIO
    TITLE "2:cjc139_0297"
    INDEX 01 00:52:47
  TRACK 31 AUDIO
    TITLE "0:"
    INDEX 01 00:55:50
  TRACK 32 AUDIO
    TITLE "2:cjc139_0298"
    INDEX 01 00:56:74
  TRACK 33 AUDIO
    TITLE "0:"
    INDEX 01 00:59:53
  TRACK 34 AUDIO
    TITLE "2:cjc139_0299"
    INDEX 01 01:00:74
  TRACK 35 AUDIO
    TITLE "0:"
    INDEX 01 01:03:43
  TRACK 36 AUDIO
    TITLE "2:cjc139_0300"
    INDEX 01 01:04:66
  TRACK 37 AUDIO
    TITLE "0:"
    INDEX 01 01:07:10
  TRACK 38 AUDIO
    TITLE "2:cjc139_0301"
    INDEX 01 01:08:33
  TRACK 39 AUDIO
    TITLE "0:"
    INDEX 01 01:11:17
  TRACK 40 AUDIO
    TITLE "2:cjc139_0302"
    INDEX 01 01:12:40
  TRACK 41 AUDIO
    TITLE "0:"
    INDEX 01 01:15:52
  TRACK 42 AUDIO
    TITLE "2:cjc139_0303"
    INDEX 01 01:17:02
  TRACK 43 AUDIO
    TITLE "0:"
    INDEX 01 01:20:08
  TRACK 44 AUDIO
    TITLE "2:cjc139_0304"
    INDEX 01 01:21:29
  TRACK 45 AUDIO
    TITLE "0:"
    INDEX 01 01:24:65
  TRACK 46 AUDIO
    TITLE "2:cjc139_0305"
    INDEX 01 01:26:13
  TRACK 47 AUDIO
    TITLE "0:"
    INDEX 01 01:29:39
  TRACK 48 AUDIO
    TITLE "2:cjc139_0306"
    INDEX 01 01:30:62
  TRACK 49 AUDIO
    TITLE "0:"
    INDEX 01 01:34:20
  TRACK 50 AUDIO
    TITLE "2:cjc139_0307"
    INDEX 01 01:35:43
  TRACK 51 AUDIO
    TITLE "0:"
    INDEX 01 01:39:41
  TRACK 52 AUDIO
    TITLE "2:cjc139_0308"
    INDEX 01 01:40:64
  TRACK 53 AUDIO
    TITLE "0:"
    INDEX 01 01:43:52
  TRACK 54 AUDIO
    TITLE "2:cjc139_0309"
    INDEX 01 01:44:70
  TRACK 55 AUDIO
    TITLE "0:"
    INDEX 01 01:48:54
  TRACK 56 AUDIO
    TITLE "2:cjc139_0310"
    INDEX 01 01:50:00
  TRACK 57 AUDIO
    TITLE "0:"
    INDEX 01 01:53:25
  TRACK 58 AUDIO
    TITLE "2:cjc139_0311"
    INDEX 01 01:54:50
  TRACK 59 AUDIO
    TITLE "0:"
    INDEX 01 01:57:58
  TRACK 60 AUDIO
    TITLE "2:cjc139_0312"
    INDEX 01 01:59:04
  TRACK 61 AUDIO
    TITLE "0:"
    INDEX 01 02:02:09
  TRACK 62 AUDIO
    TITLE "2:cjc139_0313"
    INDEX 01 02:03:30
  TRACK 63 AUDIO
    TITLE "0:"
    INDEX 01 02:06:46
  TRACK 64 AUDIO
    TITLE "2:cjc139_0314"
    INDEX 01 02:07:67
  TRACK 65 AUDIO
    TITLE "0:"
    INDEX 01 02:10:49
  TRACK 66 AUDIO
    TITLE "2:cjc139_0315"
    INDEX 01 02:11:74
  TRACK 67 AUDIO
    TITLE "0:"
    INDEX 01 02:14:61
  TRACK 68 AUDIO
    TITLE "2:cjc139_0316"
    INDEX 01 02:16:07
  TRACK 69 AUDIO
    TITLE "0:"
    INDEX 01 02:17:44
  TRACK 70 AUDIO
    TITLE "2:cjc139_0317"
    INDEX 01 02:18:65
  TRACK 71 AUDIO
    TITLE "0:"
    INDEX 01 02:20:61
  TRACK 72 AUDIO
    TITLE "2:cjc139_0318"
    INDEX 01 02:22:09
  TRACK 73 AUDIO
    TITLE "0:"
    INDEX 01 02:24:59
